<svg width="23" height="23" viewBox="0 0 23 23" fill="none" xmlns="http://www.w3.org/2000/svg">
<path d="M17.2121 4.52378L4.52123 17.2763C4.24929 17.5495 4.25961 18.0609 4.5971 18.4C4.90863 18.7131 5.42083 18.7723 5.71544 18.4763L18.4063 5.72378C18.6783 5.45051 18.6679 4.93915 18.3305 4.60002C17.993 4.26089 17.4841 4.25051 17.2121 4.52378Z" fill="#A5A5A5"/>
<path d="M4.59367 5.72376L17.2846 18.4762C17.5565 18.7495 18.0654 18.7391 18.4029 18.4C18.7404 18.0609 18.7734 17.5723 18.4788 17.2762L5.78788 4.52376C5.51593 4.25049 5.00704 4.26087 4.66954 4.6C4.33205 4.93913 4.32173 5.45049 4.59367 5.72376Z" fill="#A5A5A5"/>
</svg>
