<svg width="23" height="23" viewBox="0 0 23 23" fill="none" xmlns="http://www.w3.org/2000/svg">
<path d="M11.325 0C5.0625 0 0 5.0625 0 11.325C0 17.5875 5.0625 22.6875 11.325 22.6875C17.5875 22.6875 22.6875 17.5875 22.6875 11.325C22.6875 5.0625 17.5875 0 11.325 0ZM11.325 21C6 21 1.6875 16.65 1.6875 11.325C1.6875 6 6 1.6875 11.325 1.6875C16.65 1.6875 21 6.0375 21 11.3625C21 16.65 16.65 21 11.325 21Z" fill="#de0b0b"/>
<path d="M14.775 7.83751C14.4375 7.50001 13.9125 7.50001 13.575 7.83751L11.325 10.125L9.03748 7.83751C8.69998 7.50001 8.17498 7.50001 7.83748 7.83751C7.49998 8.17501 7.49998 8.70001 7.83748 9.03751L10.125 11.325L7.83748 13.6125C7.49998 13.95 7.49998 14.475 7.83748 14.8125C7.98748 14.9625 8.21247 15.075 8.43747 15.075C8.66248 15.075 8.88748 15 9.03748 14.8125L11.325 12.525L13.6125 14.8125C13.7625 14.9625 13.9875 15.075 14.2125 15.075C14.4375 15.075 14.6625 15 14.8125 14.8125C15.15 14.475 15.15 13.95 14.8125 13.6125L12.525 11.325L14.8125 9.03751C15.1125 8.70001 15.1125 8.17501 14.775 7.83751Z" fill="#de0b0b"/>
</svg>
