<svg width="23" height="23" viewBox="0 0 23 23" fill="none" xmlns="http://www.w3.org/2000/svg">
<path d="M11.325 0C5.0625 0 0 5.0625 0 11.325C0 17.5875 5.0625 22.6875 11.325 22.6875C17.5875 22.6875 22.6875 17.5875 22.6875 11.325C22.6875 5.0625 17.5875 0 11.325 0ZM11.325 21C6 21 1.6875 16.65 1.6875 11.325C1.6875 6 6 1.6875 11.325 1.6875C16.65 1.6875 21 6.0375 21 11.3625C21 16.65 16.65 21 11.325 21Z" fill="#098b53"/>
<path d="M14.55 7.83749L10.0875 12.1875L8.0625 10.2C7.725 9.86249 7.2 9.89999 6.8625 10.2C6.525 10.5375 6.5625 11.0625 6.8625 11.4L9.2625 13.725C9.4875 13.95 9.7875 14.0625 10.0875 14.0625C10.3875 14.0625 10.6875 13.95 10.9125 13.725L15.75 9.07499C16.0875 8.73749 16.0875 8.21249 15.75 7.87499C15.4125 7.53749 14.8875 7.53749 14.55 7.83749Z" fill="#098b53"/>
</svg>
