<svg width="23" height="23" viewBox="0 0 23 12" fill="none" xmlns="http://www.w3.org/2000/svg">
<path d="M0.872937 1.725H22.1271C22.5825 1.725 23 1.35 23 0.8625C23 0.375 22.6205 0 22.1271 0H0.872937C0.417492 0 0 0.375 0 0.8625C0 1.35 0.417492 1.725 0.872937 1.725Z" fill="#FFFFFF"/>
<path d="M22.5256 5H10.9744C10.7269 5 10.5 5.37609 10.5 5.865C10.5 6.35391 10.7063 6.73 10.9744 6.73H22.5256C22.7731 6.73 23 6.35391 23 5.865C23 5.37609 22.7731 5 22.5256 5Z" fill="#FFFFFF"/>
<path d="M22.1271 10H0.872937C0.417492 10 0 10.375 0 10.8625C0 11.3125 0.379538 11.725 0.872937 11.725H22.1271C22.5825 11.725 23 11.35 23 10.8625C23 10.375 22.5825 10 22.1271 10Z" fill="#FFFFFF"/>
</svg>
