<svg width="23" height="23" viewBox="0 0 23 23" fill="none" xmlns="http://www.w3.org/2000/svg">
<path d="M11.325 0C5.0625 0 0 5.0625 0 11.325C0 17.5875 5.1 22.6875 11.3625 22.6875C17.625 22.6875 22.725 17.5875 22.725 11.325C22.6875 5.0625 17.5875 0 11.325 0ZM11.325 21C6 21 1.6875 16.65 1.6875 11.325C1.6875 6 6 1.6875 11.325 1.6875C16.65 1.6875 21 6 21 11.325C21 16.65 16.65 21 11.325 21Z" fill="#767676"/>
<path d="M14.975 10.2875H11.975V7.325C11.975 6.875 11.6 6.5 11.1125 6.5C10.6625 6.5 10.2875 6.875 10.2875 7.3625V10.325H7.325C6.875 10.325 6.5 10.7 6.5 11.1875C6.5 11.6375 6.875 12.0125 7.3625 12.0125H10.325V14.975C10.325 15.425 10.7 15.8 11.1875 15.8C11.6375 15.8 12.0125 15.425 12.0125 14.9375V11.975H14.975C15.425 11.975 15.8 11.6 15.8 11.1125C15.8 10.6625 15.425 10.2875 14.975 10.2875Z" fill="#767676"/>
</svg>
