<svg width="23" height="17" viewBox="0 0 23 17" fill="none" xmlns="http://www.w3.org/2000/svg">
<path d="M12.2861 6.86207C12.0525 6.62069 11.7411 6.5 11.4298 6.5C11.1184 6.5 10.807 6.62069 10.5734 6.86207L8.74408 8.83333C8.39377 9.1954 8.43269 9.75862 8.783 10.1207C9.1333 10.4828 9.67822 10.4425 10.0285 10.0805L10.6124 9.47701V12.5747C10.6124 13.0575 11.0016 13.5 11.5076 13.5C11.9747 13.5 12.4028 13.0977 12.4028 12.5747V9.47701L12.9867 10.0805C13.1424 10.2816 13.3759 10.3621 13.6094 10.3621C13.843 10.3621 14.0376 10.2816 14.2322 10.1207C14.5825 9.75862 14.5825 9.1954 14.2711 8.83333L12.2861 6.86207Z" fill="#098b53"/>
<path d="M21.0992 5.28118C20.0727 4.16327 18.6661 3.43084 17.1835 3.161C16.3471 1.85034 15.1306 0.886621 13.724 0.385488C13.0777 0.154195 12.3174 0 11.519 0C7.94545 0 4.98017 2.77551 4.75207 6.28345C2.05289 6.63039 0 8.90476 0 11.6417C0 14.61 2.39504 17 5.36033 17H15.9289C19.8066 17 23 13.8776 23 10.0227C23 8.28798 22.3157 6.59184 21.0992 5.28118ZM15.9289 15.3039H5.39835C3.30744 15.3039 1.71074 13.6848 1.71074 11.6803C1.71074 9.63719 3.34545 8.05669 5.39835 8.05669H5.58843C6.04463 8.05669 6.46281 7.6712 6.46281 7.17007V6.78458C6.46281 4.00907 8.7438 1.77324 11.519 1.77324C12.1273 1.77324 12.6595 1.85034 13.1537 2.04308C14.3322 2.42857 15.3207 3.27664 15.9289 4.39456C16.081 4.62585 16.3091 4.81859 16.5752 4.81859C17.8298 4.93424 19.0463 5.55102 19.8826 6.47619C20.795 7.47846 21.2893 8.75057 21.2893 10.0612C21.2893 12.9524 18.8562 15.3039 15.9289 15.3039Z" fill="#767676"/>
</svg>
