<svg width="23" height="20" viewBox="0 0 23 20" fill="none" xmlns="http://www.w3.org/2000/svg">
<path d="M22.7179 18.367C19.6028 15.5509 15.652 14 11.5112 14C7.37034 14 3.41947 15.5509 0.304357 18.367C-0.0375447 18.6935 -0.113523 19.2649 0.19039 19.673C0.494303 20.0403 1.02615 20.122 1.40604 19.7955C4.21724 17.2242 7.78822 15.8366 11.5112 15.8366C15.2341 15.8366 18.8051 17.2242 21.5783 19.7546C21.7302 19.9179 21.9202 19.9587 22.1481 19.9587C22.376 19.9587 22.642 19.8363 22.7939 19.6322C23.0978 19.2649 23.0599 18.6935 22.7179 18.367Z" fill="white"/>
<path d="M11.5 12C14.82 12 17.5 9.32 17.5 6C17.5 2.68 14.82 0 11.5 0C8.18 0 5.5 2.68 5.5 6C5.5 9.32 8.18 12 11.5 12ZM11.5 1.8C13.82 1.8 15.7 3.68 15.7 6C15.7 8.32 13.82 10.2 11.5 10.2C9.18 10.2 7.3 8.32 7.3 6C7.3 3.68 9.18 1.8 11.5 1.8Z" fill="white"/>
</svg>
